<svg xmlns="http://www.w3.org/2000/svg" width="704.609" height="704.609" viewBox="0 0 704.609 704.609"><circle cx="352.305" cy="352.305" r="352.305" fill="#296e80"/><g transform="translate(132.114 198.171)" opacity="0.2"><path d="M452.381,370.3a44.04,44.04,0,0,1-44.038,44.038H56.038A44.04,44.04,0,0,1,12,370.3V62.038A44.04,44.04,0,0,1,56.038,18h352.3a44.04,44.04,0,0,1,44.038,44.038Z" transform="translate(-12 -18)" fill="#231f20"/></g><g transform="translate(132.114 176.152)"><path d="M452.381,368.3a44.04,44.04,0,0,1-44.038,44.038H56.038A44.04,44.04,0,0,1,12,368.3V60.038A44.04,44.04,0,0,1,56.038,16h352.3a44.04,44.04,0,0,1,44.038,44.038Z" transform="translate(-12 -16)" fill="#e0e0d1"/></g><g transform="translate(132.114 154.133)" opacity="0.2"><path d="M452.381,366.3a44.04,44.04,0,0,1-44.038,44.038H56.038A44.04,44.04,0,0,1,12,366.3V58.038A44.04,44.04,0,0,1,56.038,14h352.3a44.04,44.04,0,0,1,44.038,44.038Z" transform="translate(-12 -14)" fill="#231f20"/></g><g transform="translate(132.114 132.114)"><path d="M452.381,364.3a44.04,44.04,0,0,1-44.038,44.038H56.038A44.04,44.04,0,0,1,12,364.3V56.038A44.04,44.04,0,0,1,56.038,12h352.3a44.04,44.04,0,0,1,44.038,44.038Z" transform="translate(-12 -12)" fill="#e0e0d1"/></g><g transform="translate(176.152 264.228)"><rect width="132.114" height="132.114" fill="#4f5d73"/></g><g transform="translate(396.343 297.257)"><rect width="132.114" height="11.01" fill="#4f5d73"/></g><g transform="translate(396.343 275.238)"><rect width="132.114" height="11.01" fill="#4f5d73"/></g><g transform="translate(352.305 264.228)"><rect width="33.029" height="44.038" fill="#4f5d73"/></g><g transform="translate(352.305 330.285)"><rect width="176.152" height="11.01" fill="#4f5d73"/></g><g transform="translate(352.305 352.305)"><rect width="176.152" height="11.01" fill="#4f5d73"/></g><g transform="translate(352.305 374.324)"><rect width="176.152" height="11.01" fill="#4f5d73"/></g><g transform="translate(352.305 396.343)"><rect width="176.152" height="11.01" fill="#4f5d73"/></g><g transform="translate(394.966 429.371)"><rect width="133.49" height="11.01" fill="#4f5d73"/></g><g transform="translate(176.152 429.371)"><rect width="132.114" height="11.01" fill="#4f5d73"/></g><g transform="translate(176.152 451.39)"><rect width="132.114" height="11.01" fill="#4f5d73"/></g><g transform="translate(176.152 473.409)"><rect width="132.114" height="11.01" fill="#4f5d73"/></g><g transform="translate(176.152 495.428)"><rect width="132.114" height="11.01" fill="#4f5d73"/></g><g transform="translate(352.305 451.39)"><rect width="176.152" height="11.01" fill="#4f5d73"/></g><g transform="translate(352.305 473.409)"><rect width="176.152" height="11.01" fill="#4f5d73"/></g><g transform="translate(352.305 495.428)"><rect width="176.152" height="11.01" fill="#4f5d73"/></g><g transform="translate(242.209 286.247)"><circle cx="22.019" cy="22.019" r="22.019" fill="#e0e0d1"/></g><g transform="translate(176.152 176.152)"><rect width="352.305" height="44.038" fill="#4f5d73"/></g><g transform="translate(187.162 330.291)"><path d="M127.1,85.043V58.466l-8.642-8.6a13.782,13.782,0,0,0-19.41,0L89.751,59.1,68.525,38.01a27.657,27.657,0,0,0-38.93,0L17,50.528V85.043Z" transform="translate(-17 -30)" fill="#e0e0d1"/></g></svg>